<svg xmlns="http://www.w3.org/2000/svg" width="24" height="24" fill="white" viewBox="0 0 24 24">
  <path d="M7 18c-1.104 0-2 .896-2 2s.896 2 2 2c1.104 0 2-.896 2-2s-.896-2-2-2zm0 2.5c-.276 0-.5-.224-.5-.5s.224-.5.5-.5.5.224.5.5-.224.5-.5.5zm10-2.5c-1.104 0-2 .896-2 2s.896 2 2 2c1.104 0 2-.896 2-2s-.896-2-2-2zm0 2.5c-.276 0-.5-.224-.5-.5s.224-.5.5-.5.5.224.5.5-.224.5-.5.5zM6.121 4l-.95-2H1v2h2.171l3.6 7.59-1.357 2.45C4.565 15.37 5.522 17 7 17h12v-2H7.42c-.14 0-.25-.07-.32-.18l.03-.06L8.1 13h7.45c.75 0 1.41-.41 1.75-1.03l3.58-6.49A1.003 1.003 0 0019 4H6.121z"/>
</svg>
